<?xml version="1.0" encoding="utf-8"?>
<!-- Generator: Adobe Illustrator 25.4.1, SVG Export Plug-In . SVG Version: 6.00 Build 0)  -->
<svg version="1.1" id="Layer_1" xmlns="http://www.w3.org/2000/svg" xmlns:xlink="http://www.w3.org/1999/xlink" x="0px" y="0px"
	 viewBox="0 0 13.7 85.5" style="enable-background:new 0 0 13.7 85.5;" xml:space="preserve">
<style type="text/css">
	.st0{fill:#FFFFFF;}
</style>
<g id="Layer_2_00000178894596016383974030000015055691031447524519_">
	<g id="Layer_1-2">
		<path class="st0" d="M13.7,67.7v16c0,0.8-0.7,1.4-1.5,1.4c-0.4,0-0.7-0.2-1-0.4l-10.8-8c-0.6-0.6-0.6-1.5,0-2.1l10.8-8
			c0.6-0.6,1.5-0.6,2.1,0C13.6,66.9,13.7,67.3,13.7,67.7z"/>
		<g>
			<path class="st0" d="M5.9,0.3c3,0,5.2,2.3,5.2,5.4c0,1.6-0.6,3.1-1.7,4L8.2,8.5C9,7.8,9.4,6.9,9.4,5.8c0-2.1-1.5-3.6-3.6-3.6
				c-2.1,0-3.6,1.5-3.6,3.6c0,1.1,0.4,2,1.2,2.7L2.4,9.7c-1.1-0.9-1.7-2.4-1.7-4C0.7,2.6,2.8,0.3,5.9,0.3z"/>
			<path class="st0" d="M2.4,19.1H0.8v-7.6h10.1v7.4H9.3v-5.5H6.7v4.9H5.2v-4.9H2.4V19.1z"/>
			<path class="st0" d="M0.8,27.8l3-2.1c0-0.1,0-0.3,0-0.4v-2.3H0.8v-1.9h10.1v4.2c0,2.7-1.4,4.3-3.6,4.3c-1.5,0-2.7-0.8-3.2-2.2
				l-3.3,2.3V27.8z M9.3,25.3v-2.2h-4v2.2c0,1.6,0.8,2.5,2,2.5C8.6,27.8,9.3,26.9,9.3,25.3z"/>
			<path class="st0" d="M0.8,38.4l3-2.1c0-0.1,0-0.3,0-0.4v-2.3H0.8v-1.9h10.1v4.2c0,2.7-1.4,4.3-3.6,4.3c-1.5,0-2.7-0.8-3.2-2.2
				l-3.3,2.3V38.4z M9.3,35.8v-2.2h-4v2.2c0,1.6,0.8,2.5,2,2.5C8.6,38.3,9.3,37.5,9.3,35.8z"/>
			<path class="st0" d="M3.1,48.9v-5.1l-2.3-1v-1.9l10.1,4.5v1.8L0.8,51.9v-2L3.1,48.9z M4.6,48.3L9,46.4l-4.4-1.9V48.3z"/>
			<path class="st0" d="M0.8,59.8l3-2.1c0-0.1,0-0.3,0-0.4V55H0.8v-1.9h10.1v4.2c0,2.7-1.4,4.3-3.6,4.3c-1.5,0-2.7-0.8-3.2-2.2
				l-3.3,2.3V59.8z M9.3,57.2V55h-4v2.2c0,1.6,0.8,2.5,2,2.5C8.6,59.7,9.3,58.9,9.3,57.2z"/>
		</g>
	</g>
</g>
</svg>
