<?xml version="1.0" encoding="utf-8"?>
<!-- Generator: Adobe Illustrator 25.4.1, SVG Export Plug-In . SVG Version: 6.00 Build 0)  -->
<svg version="1.1" id="Layer_1" xmlns="http://www.w3.org/2000/svg" xmlns:xlink="http://www.w3.org/1999/xlink" x="0px" y="0px"
	 viewBox="0 0 13.7 85.5" style="enable-background:new 0 0 13.7 85.5;" xml:space="preserve">
<style type="text/css">
	.st0{fill:#FFFFFF;}
</style>
<g>
	<path class="st0" d="M0.2,75.3V59.7c0-1.3,1.5-1.9,2.4-1l10.5,7.8c0.6,0.6,0.6,1.5,0,2L2.7,76.3C1.8,77.2,0.2,76.6,0.2,75.3z"/>
	<g>
		<path class="st0" d="M0.5,18l6.7,0l-5.5-3.3v-0.8l5.5-3.3H0.5V8.7h10.1v1.5l-6.7,4l6.7,3.9v1.5l-10.1,0V18z"/>
		<path class="st0" d="M2,30.1H0.5v-7.6h10.1v7.4H9v-5.5H6.4v4.9H4.8v-4.9H2V30.1z"/>
		<path class="st0" d="M10.6,41.2H0.5v-1.5l6.8-5.6H0.5v-1.9h10.1v1.5l-6.8,5.6h6.8V41.2z"/>
		<path class="st0" d="M4.9,43.8h5.7v1.9H4.9c-2.1,0-3,0.9-3,2.6c0,1.6,0.9,2.6,3,2.6h5.6v1.8H4.9c-2.9,0-4.5-1.7-4.5-4.4
			C0.3,45.5,1.9,43.8,4.9,43.8z M13.4,49v2.1l-2-2.5V47L13.4,49z"/>
	</g>
</g>
</svg>
